<svg version="1.1" id="Layer_1" xmlns="http://www.w3.org/2000/svg" xmlns:xlink="http://www.w3.org/1999/xlink" x="0px" y="0px" width="100%" viewBox="0 0 722 345" enable-background="new 0 0 722 345" xml:space="preserve">

<path fill="#B38732" opacity="1.000000" stroke="none" d="
M302.979401,194.059036 
	C280.598480,194.058670 258.713135,194.058670 235.041519,194.058670 
	C237.509033,189.247040 239.099319,185.660294 241.123627,182.337982 
	C243.069885,179.143768 244.494766,176.748215 241.613235,172.808960 
	C237.634247,167.369385 239.063766,155.270447 249.934402,153.137482 
	C257.230377,151.705917 260.953278,147.891510 263.789032,141.646011 
	C266.322906,136.065262 269.628662,130.829163 272.707672,125.506836 
	C273.294128,124.493080 274.348969,123.223137 275.304443,123.116402 
	C276.072235,123.030647 277.282837,124.372528 277.840332,125.343170 
	C282.171722,132.884369 286.491821,140.435989 290.592163,148.103775 
	C291.988312,150.714691 293.613922,151.746216 296.672394,152.106476 
	C302.494629,152.792297 307.962250,155.223877 309.593384,161.436752 
	C310.523926,164.981323 311.060944,169.908981 309.302063,172.593582 
	C306.325317,177.137070 307.757507,180.004715 310.091553,183.602585 
	C312.081482,186.670044 313.699554,189.978745 315.971283,194.059402 
	C311.021088,194.059402 307.248016,194.059402 302.979401,194.059036 
M266.972931,159.479187 
	C264.015259,165.589233 260.852600,171.611816 258.191132,177.848282 
	C256.963684,180.724487 258.585815,182.928207 261.637085,183.821579 
	C270.640656,186.457703 279.696716,185.580872 288.599579,183.608139 
	C291.555267,182.953201 294.406403,180.796341 292.290070,176.589798 
	C289.839355,171.718643 287.506775,166.782578 285.298828,161.796814 
	C283.890228,158.616028 282.347748,158.289520 279.796631,160.688858 
	C276.401245,163.882217 273.187378,163.351593 270.163849,159.871307 
	C269.547882,159.162308 268.166016,159.118713 266.972931,159.479187 
M299.533813,189.998245 
	C302.630554,189.998245 305.727295,189.998245 309.211517,189.998245 
	C307.098114,186.114471 305.548126,183.266098 303.942352,180.315170 
	C285.060425,191.662979 266.350708,192.406586 247.645920,180.000641 
	C245.628555,183.184402 243.670685,186.274261 241.301224,190.013687 
	C260.958374,190.013687 279.813232,190.013687 299.533813,189.998245 
M278.192139,145.148132 
	C279.825470,147.114532 281.303436,149.245834 283.150269,150.985535 
	C284.260956,152.031799 285.946472,152.467834 287.373657,153.178101 
	C287.601532,152.764359 287.829407,152.350616 288.057312,151.936874 
	C283.991943,144.387878 279.926605,136.838882 275.398315,128.430283 
	C271.303009,136.147125 267.619080,142.904068 264.207977,149.796051 
	C263.858765,150.501617 265.143921,152.016083 265.723267,153.268967 
	C268.402039,149.915771 270.568146,147.669571 272.171051,145.075394 
	C274.012848,142.094589 275.791077,142.262375 278.192139,145.148132 
M301.222992,157.115234 
	C299.315765,156.444244 297.408508,155.773239 294.312927,154.684158 
	C297.957672,161.484894 301.007904,167.176346 304.301300,173.321533 
	C307.893524,164.836792 307.616333,163.310593 301.222992,157.115234 
M251.482544,163.908813 
	C252.877914,161.098755 254.273270,158.288696 255.814148,155.185577 
	C250.079559,155.429016 246.506470,158.949203 244.620941,163.371384 
	C243.539322,165.908142 244.907303,169.489334 245.172501,172.600342 
	C245.662704,172.568787 246.152893,172.537231 246.643082,172.505692 
	C248.083191,169.826492 249.523285,167.147308 251.482544,163.908813 
M296.450134,166.077332 
	C294.946411,163.386948 293.637787,160.555725 291.845703,158.073517 
	C291.099213,157.039566 289.322845,156.749161 287.581940,155.912720 
	C291.405090,164.339401 294.695740,171.592361 298.100403,179.096664 
	C299.356598,177.964340 300.550507,176.888168 301.603729,175.938782 
	C299.946350,172.708786 298.405457,169.705795 296.450134,166.077332 
M254.419312,175.055069 
	C257.261780,168.749863 260.104218,162.444656 262.848083,156.358170 
	C257.977753,156.466736 249.163300,172.625397 251.850754,180.404617 
	C252.588806,178.864639 253.326859,177.324646 254.419312,175.055069 
M277.524139,150.135773 
	C271.898285,146.787155 272.965271,153.325897 270.439819,154.391907 
	C271.995697,156.179916 273.273956,157.648865 274.678284,159.262726 
	C276.908905,157.620102 278.827179,156.207489 280.734680,154.802811 
	C279.725189,153.273712 278.855164,151.955902 277.524139,150.135773 
z" data-index="1" style="opacity: 1; visibility: visible;"></path>
<path fill="#B38732" opacity="1.000000" stroke="none" d="
M464.106201,168.458527 
	C469.494690,160.580994 476.117950,158.498642 484.566193,162.614563 
	C485.327942,162.985703 486.846680,161.882812 487.982300,161.391541 
	C491.121216,160.033661 495.058899,162.151688 495.101562,165.471176 
	C495.212555,174.105423 495.138855,182.742020 495.138855,192.516190 
	C492.051483,192.070267 489.388458,191.628342 486.709442,191.330612 
	C485.803040,191.229889 484.796539,191.321747 483.937103,191.618774 
	C476.949738,194.033463 469.556427,192.629944 465.404602,186.793884 
	C461.580811,181.418884 461.180969,175.073288 464.106201,168.458527 
M472.126984,172.907806 
	C471.818726,173.829498 471.282471,174.740662 471.239227,175.674622 
	C470.957764,181.757507 473.633240,185.980347 479.288361,184.792114 
	C482.666260,184.082352 485.362427,182.275909 485.933350,178.461136 
	C486.471802,174.863602 485.494110,171.978470 482.104828,170.129471 
	C478.253784,168.028564 475.189209,169.262070 472.126984,172.907806 
z" data-index="2" style="opacity: 1; visibility: visible;"></path>
<path fill="#B38732" opacity="1.000000" stroke="none" d="
M367.138214,172.645935 
	C368.729218,165.886780 372.758881,161.772247 379.086670,161.046371 
	C385.840454,160.271622 392.193268,161.850983 395.958038,168.416824 
	C396.892914,170.047241 397.458038,171.950790 397.884094,173.799988 
	C399.030853,178.777023 397.968201,180.000061 392.737732,180.012772 
	C387.273773,180.026047 381.809784,180.015732 376.268250,180.015732 
	C377.410065,185.311829 382.003326,187.804626 385.373901,184.666931 
	C389.031982,181.261566 392.705261,181.952621 396.759003,182.317352 
	C395.413147,190.920868 384.014648,195.636734 376.134979,191.693069 
	C368.068970,187.656143 366.093475,181.202835 367.138214,172.645935 
M387.773376,170.542603 
	C386.417572,170.057220 385.054077,169.592087 383.707458,169.082397 
	C380.498383,167.867767 377.625488,169.626831 376.791046,173.921234 
	C380.138428,173.921234 383.380768,174.035370 386.598083,173.803268 
	C387.104828,173.766724 387.498505,172.162964 387.773376,170.542603 
z" data-index="3" style="opacity: 1;"></path>
<path fill="#B38732" opacity="1.000000" stroke="none" d="
M366.427063,163.340073 
	C362.944183,171.767456 359.790771,179.912140 356.392883,187.953522 
	C354.519867,192.386093 354.334686,192.307846 347.878387,191.651230 
	C342.765594,178.621490 337.693146,165.694656 332.592621,152.696167 
	C340.765167,150.783051 341.724823,151.396530 344.157471,158.500092 
	C346.300659,164.758484 348.721680,170.921753 351.330658,177.965698 
	C354.406036,170.730408 357.248901,164.426376 359.773895,157.997482 
	C362.486206,151.091660 362.355927,151.040497 370.441040,152.530396 
	C369.159851,156.077606 367.907196,159.545929 366.427063,163.340073 
z" data-index="4" style="opacity: 1;"></path>
<path fill="#B38732" opacity="1.000000" stroke="none" d="
M436.008362,162.807312 
	C443.203674,168.450119 445.592468,176.690796 442.538177,183.971268 
	C440.237091,189.456451 432.852386,193.737564 425.815063,192.856277 
	C416.900055,191.739822 408.595886,182.918411 411.861298,172.971252 
	C415.613800,161.540375 423.378021,158.079453 436.008362,162.807312 
M430.260956,184.943298 
	C432.090088,181.814896 434.759369,178.871033 435.499023,175.503357 
	C436.165619,172.468338 429.621368,168.469070 426.231354,169.123276 
	C421.868896,169.965134 419.798615,173.974335 420.972473,179.307343 
	C421.948395,183.740875 425.501648,186.152039 430.260956,184.943298 
z" data-index="5" style="opacity: 1;"></path>
<path fill="#B38732" opacity="1.000000" stroke="none" d="
M408.943695,182.892868 
	C408.936066,184.042221 408.930084,184.708176 408.926300,185.374146 
	C408.888672,192.045120 408.888733,192.045120 401.340881,191.715973 
	C401.340881,177.918152 401.340881,164.084824 401.340881,150.236969 
	C409.089966,149.264236 409.159088,149.311310 409.120483,156.936539 
	C409.077484,165.427597 409.005676,173.918503 408.943695,182.892868 
z" data-index="6" style="opacity: 1;"></path>
<path fill="#B38732" opacity="1.000000" stroke="none" d="
M445.843658,175.004471 
	C445.843018,170.406982 445.843018,166.308197 445.843018,162.330582 
	C450.406494,161.813171 454.439728,161.284378 458.488037,160.925568 
	C460.675507,160.731705 463.035889,160.650436 463.076813,163.882156 
	C463.107910,166.338364 463.590942,168.831909 459.716736,169.202774 
	C455.661469,169.590958 453.967072,172.440216 454.023224,176.448959 
	C454.076630,180.262070 453.981995,184.077148 453.963623,187.891418 
	C453.948883,190.954590 452.877808,192.996933 449.389008,193.028076 
	C445.630463,193.061615 445.794617,190.548569 445.834656,187.940720 
	C445.898224,183.795792 445.846985,179.649109 445.843658,175.004471 
z" data-index="7" style="opacity: 1;"></path>

<path fill="#000000" opacity="1.000000" stroke="none" d="
M299.100952,190.005966 
	C279.813232,190.013687 260.958374,190.013687 241.301224,190.013687 
	C243.670685,186.274261 245.628555,183.184402 247.645920,180.000641 
	C266.350708,192.406586 285.060425,191.662979 303.942352,180.315170 
	C305.548126,183.266098 307.098114,186.114471 309.211517,189.998245 
	C305.727295,189.998245 302.630554,189.998245 299.100952,190.005966 
z" data-index="9" style="opacity: 1; visibility: hidden;"></path>

<path fill="#000000" opacity="1.000000" stroke="none" d="
M301.552155,157.293121 
	C307.616333,163.310593 307.893524,164.836792 304.301300,173.321533 
	C301.007904,167.176346 297.957672,161.484894 294.312927,154.684158 
	C297.408508,155.773239 299.315765,156.444244 301.552155,157.293121 
z" data-index="11" style="opacity: 1; visibility: hidden;"></path>

<path fill="#000000" opacity="1.000000" stroke="none" d="
M296.657349,166.390076 
	C298.405457,169.705795 299.946350,172.708786 301.603729,175.938782 
	C300.550507,176.888168 299.356598,177.964340 298.100403,179.096664 
	C294.695740,171.592361 291.405090,164.339401 287.581940,155.912720 
	C289.322845,156.749161 291.099213,157.039566 291.845703,158.073517 
	C293.637787,160.555725 294.946411,163.386948 296.657349,166.390076 
z" data-index="13" style="opacity: 1; visibility: hidden;"></path>

<path fill="#000000" opacity="1.000000" stroke="none" d="
M277.754639,150.386932 
	C278.855164,151.955902 279.725189,153.273712 280.734680,154.802811 
	C278.827179,156.207489 276.908905,157.620102 274.678284,159.262726 
	C273.273956,157.648865 271.995697,156.179916 270.439819,154.391907 
	C272.965271,153.325897 271.898285,146.787155 277.754639,150.386932 
z" data-index="15" style="opacity: 1; visibility: hidden;"></path>

<path fill="#000000" opacity="1.000000" stroke="none" d="
M387.858917,170.913208 
	C387.498505,172.162964 387.104828,173.766724 386.598083,173.803268 
	C383.380768,174.035370 380.138428,173.921234 376.791046,173.921234 
	C377.625488,169.626831 380.498383,167.867767 383.707458,169.082397 
	C385.054077,169.592087 386.417572,170.057220 387.858917,170.913208 
z" data-index="17" style="opacity: 1; visibility: hidden;"></path>

</svg>