<svg width="32" height="32" viewBox="0 0 32 32" fill="none" xmlns="http://www.w3.org/2000/svg">
<mask id="mask0_616_6329" style="mask-type:luminance" maskUnits="userSpaceOnUse" x="0" y="0" width="32" height="32">
<path d="M26.2977 28.9204C26.2977 28.9204 17.4812 7.01082 16.1244 3.34719H15.672C14.3379 7.01082 5.41485 28.9204 5.41485 28.9204H26.2977ZM13.6593 0.339485H18.2955L31.9999 32H-6.10352e-05L13.6593 0.339485Z" fill="white"/>
</mask>
<g mask="url(#mask0_616_6329)">
<path d="M-6.10352e-05 32V31.8394H0.0534835V31.7323H0.107028V31.6252H0.160573V31.4646H0.214117V31.3575H0.267662V31.2504H0.321206V31.0897H0.374751V30.9827H0.428296V30.8756H0.48184V30.7149H0.535385V30.6078H0.588929V30.5008H0.642474V30.3401H0.696018V30.233H0.749563V30.1259H0.803108V29.9653H0.856652V29.8582H0.910197V29.7511H0.963741V29.5905H1.01729V29.4834H1.07083V29.3763H1.12437V29.2692H1.17792V29.1086H1.23146V29.0015H1.28501V28.8944H1.33855V28.7338H1.3921V28.6267H1.44564V28.5196H1.49919V28.359H1.55273V28.2519H1.60628V28.1448H1.65982V27.9842H1.71337V27.8771H1.76691V27.77H1.82045V27.6093H1.874V27.5023H1.92754V27.3952H1.98109V27.2345H2.03463V27.1274H2.08818V27.0204H2.14172V26.8597H2.19527V26.7526H2.24881V26.6455H2.30236V26.5385H2.3559V26.3778H2.40944V26.2707H2.46299V26.1636H2.51653V26.003H2.57008V25.8959H2.62362V25.7888H2.67717V25.6282H2.73071V25.5211H2.78426V25.414H2.8378V25.2534H2.89135V25.1463H2.94489V25.0392H2.99843V24.8786H3.05198V24.7715H3.10552V24.6644H3.15907V24.5038H3.21261V24.3967H3.26616V24.2896H3.3197V24.129H3.37325V24.0219H3.42679V23.9148H3.48034V23.8077H3.53388V23.6471H3.58743V23.54H3.64097V23.4329H3.69451V23.2722H3.74806V23.1652H3.8016V23.0581H3.85515V22.8974H3.90869V22.7903H3.96224V22.6833H4.01578V22.5226H4.06933V22.4155H4.12287V22.3084H4.17642V22.1478H4.22996V22.0407H4.2835V21.9336H4.33705V21.773H4.39059V21.6659H4.44414V21.5588H4.49768V21.3982H4.55123V21.2911H4.60477V21.184H4.65832V21.0769H4.71186V20.9163H4.76541V20.8092H4.81895V20.7021H4.87249V20.5415H4.92604V20.4344H4.97958V20.3273H5.03313V20.1667H5.08667V20.0596H5.14022V19.9525H5.19376V19.7918H5.24731V19.6848H5.30085V19.5777H5.3544V19.417H5.40794V19.3099H5.46148V19.2029H5.51503V19.0422H5.56857V18.9351H5.62212V18.828H5.67566V18.6674H5.72921V18.5603H5.78275V18.4532H5.8363V18.3461H5.88984V18.1855H5.94339V18.0784H5.99693V17.9713H6.05048V17.8107H6.10402V17.7036H6.15756V17.5965H6.21111V17.4359H6.26465V17.3288H6.3182V17.2217H6.37174V17.0611H6.42529V16.954H6.47883V16.8469H6.53238V16.6863H6.58592V16.5792H6.63947V16.4721H6.69301V16.3115H6.74655V16.2044H6.8001V16.0973H6.85364V15.9902H6.90719V15.8295H6.96073V15.7225H7.01428V15.6154H7.06782V15.4547H7.12137V15.3476H7.17491V15.2406H7.22846V15.0799H7.282V14.9728H7.33555V14.8657H7.38909V14.7051H7.44263V14.598H7.49618V14.4909H7.54972V14.3303H7.60327V14.2232H7.65681V14.1161H7.71036V13.9555H7.7639V13.8484H7.81745V13.7413H7.87099V13.5807H7.92454V13.4736H7.97808V13.3665H8.03162V13.2594H8.08517V13.0988H8.13871V12.9917H8.19226V12.8846H8.2458V12.724H8.29935V12.6169H8.35289V12.5098H8.40644V12.3492H8.45998V12.2421H8.51353V12.135H8.56707V11.9743H8.62062V11.8673H8.67416V11.7602H8.7277V11.5995H8.78125V11.4924H8.83479V11.3854H8.88834V11.2247H8.94188V11.1176H8.99543V11.0105H9.04897V10.8499H9.10252V10.7428H9.15606V10.6357H9.20961V10.5286H9.26315V10.368H9.31669V10.2609H9.37024V10.1538H9.42378V9.99319H9.47733V9.8861H9.53087V9.77902H9.58442V9.61838H9.63796V9.51129H9.69151V9.4042H9.74505V9.24357H9.7986V9.13648H9.85214V9.02939H9.90568V8.86876H9.95923V8.76167H10.0128V8.65458H10.0663V8.49395H10.1199V8.38686H10.1734V8.27977H10.227V8.11913H10.2805V8.01205H10.334V7.90496H10.3876V7.79787H10.4411V7.63723H10.4947V7.53015H10.5482V7.42306H10.6018V7.26242H10.6553V7.15533H10.7089V7.04824H10.7624V6.88761H10.8159V6.78052H10.8695V6.67343H10.923V6.5128H10.9766V6.40571H11.0301V6.29862H11.0837V6.13799H11.1372V6.0309H11.1908V5.92381H11.2443V5.76318H11.2978V5.65609H11.3514V5.549H11.4049V5.38836H11.4585V5.28127H11.512V5.17418H11.5656V5.0671H11.6191V4.90646H11.6727V4.79937H11.7262V4.69229H11.7797V4.53165H11.8333V4.42456H11.8868V4.31747H11.9404V4.15684H11.9939V4.04975H12.0475V3.94266H12.101V3.78203H12.1546V3.67494H12.2081V3.56785H12.2616V3.40722H12.3152V3.30013H12.3687V3.19304H12.4223V3.0324H12.4758V2.92531H12.5294V2.81823H12.5829V2.65759H12.6365V2.5505H12.69V2.44341H12.7435V2.33632H12.7971V2.17569H12.8506V2.0686H12.9042V1.96151H12.9577V1.80088H13.0113V1.69379H13.0648V1.5867H13.1184V1.42607H13.1719V1.31898H13.2254V1.21189H13.279V1.05126H13.3325V0.944166H13.3861V0.837078H13.4396V0.676445H13.4932V0.569355H13.5467V0.462265H13.6003V0.355177H18.3657V0.462265H18.4193V0.6229H18.4728V0.729988H18.5264V0.837078H18.5799V0.944166H18.6334V1.1048H18.687V1.21189H18.7405V1.31898H18.7941V1.47961H18.8476V1.5867H18.9012V1.69379H18.9547V1.85442H19.0083V1.96151H19.0618V2.0686H19.1154V2.22924H19.1689V2.33632H19.2224V2.44341H19.276V2.60405H19.3295V2.71114H19.3831V2.81823H19.4366V2.92531H19.4902V3.08595H19.5437V3.19304H19.5973V3.30013H19.6508V3.46076H19.7043V3.56785H19.7579V3.67494H19.8114V3.83557H19.865V3.94266H19.9185V4.04975H19.9721V4.21038H20.0256V4.31747H20.0792V4.42456H20.1327V4.53165H20.1862V4.69229H20.2398V4.79937H20.2933V4.90646H20.3469V5.0671H20.4004V5.17418H20.454V5.28127H20.5075V5.44191H20.5611V5.549H20.6146V5.65609H20.6681V5.81672H20.7217V5.92381H20.7752V6.0309H20.8288V6.19153H20.8823V6.29862H20.9359V6.40571H20.9894V6.5128H21.043V6.67343H21.0965V6.78052H21.15V6.88761H21.2036V7.04824H21.2571V7.15533H21.3107V7.26242H21.3642V7.42306H21.4178V7.53015H21.4713V7.63723H21.5249V7.79787H21.5784V7.90496H21.6319V8.01205H21.6855V8.11913H21.739V8.27977H21.7926V8.38686H21.8461V8.49395H21.8997V8.65458H21.9532V8.76167H22.0068V8.86876H22.0603V9.02939H22.1138V9.13648H22.1674V9.24357H22.2209V9.4042H22.2745V9.51129H22.328V9.61838H22.3816V9.77902H22.4351V9.8861H22.4887V9.99319H22.5422V10.1003H22.5957V10.2609H22.6493V10.368H22.7028V10.4751H22.7564V10.6357H22.8099V10.7428H22.8635V10.8499H22.917V11.0105H22.9706V11.1176H23.0241V11.2247H23.0776V11.3854H23.1312V11.4924H23.1847V11.5995H23.2383V11.7066H23.2918V11.8673H23.3454V11.9743H23.3989V12.0814H23.4525V12.2421H23.506V12.3492H23.5595V12.4562H23.6131V12.6169H23.6666V12.724H23.7202V12.8311H23.7737V12.9917H23.8273V13.0988H23.8808V13.2059H23.9344V13.3665H23.9879V13.4736H24.0415V13.5807H24.095V13.6878H24.1485V13.8484H24.2021V13.9555H24.2556V14.0626H24.3092V14.2232H24.3627V14.3303H24.4163V14.4374H24.4698V14.598H24.5234V14.7051H24.5769V14.8122H24.6304V14.9728H24.684V15.0799H24.7375V15.187H24.7911V15.2941H24.8446V15.4547H24.8982V15.5618H24.9517V15.6689H25.0053V15.8295H25.0588V15.9366H25.1123V16.0437H25.1659V16.2044H25.2194V16.3115H25.273V16.4185H25.3265V16.5792H25.3801V16.6863H25.4336V16.7934H25.4872V16.954H25.5407V17.0611H25.5942V17.1682H25.6478V17.2753H25.7013V17.4359H25.7549V17.543H25.8084V17.6501H25.862V17.8107H25.9155V17.9178H25.9691V18.0249H26.0226V18.1855H26.0761V18.2926H26.1297V18.3997H26.1832V18.5603H26.2368V18.6674H26.2903V18.7745H26.3439V18.8816H26.3974V19.0422H26.451V19.1493H26.5045V19.2564H26.558V19.417H26.6116V19.5241H26.6651V19.6312H26.7187V19.7918H26.7722V19.8989H26.8258V20.006H26.8793V20.1667H26.9329V20.2737H26.9864V20.3808H27.0399V20.5415H27.0935V20.6486H27.147V20.7556H27.2006V20.8627H27.2541V21.0234H27.3077V21.1305H27.3612V21.2375H27.4148V21.3982H27.4683V21.5053H27.5218V21.6124H27.5754V21.773H27.6289V21.8801H27.6825V21.9872H27.736V22.1478H27.7896V22.2549H27.8431V22.362H27.8967V22.4691H27.9502V22.6297H28.0037V22.7368H28.0573V22.8439H28.1108V23.0045H28.1644V23.1116H28.2179V23.2187H28.2715V23.3793H28.325V23.4864H28.3786V23.5935H28.4321V23.7541H28.4857V23.8612H28.5392V23.9683H28.5927V24.0754H28.6463V24.236H28.6998V24.3431H28.7534V24.4502H28.8069V24.6109H28.8605V24.7179H28.914V24.825H28.9676V24.9857H29.0211V25.0928H29.0746V25.1998H29.1282V25.3605H29.1817V25.4676H29.2353V25.5747H29.2888V25.7353H29.3424V25.8424H29.3959V25.9495H29.4495V26.0566H29.503V26.2172H29.5565V26.3243H29.6101V26.4314H29.6636V26.592H29.7172V26.6991H29.7707V26.8062H29.8243V26.9668H29.8778V27.0739H29.9314V27.181H29.9849V27.3416H30.0384V27.4487H30.092V27.5558H30.1455V27.6629H30.1991V27.8235H30.2526V27.9306H30.3062V28.0377H30.3597V28.1983H30.4133V28.3054H30.4668V28.4125H30.5203V28.5731H30.5739V28.6802H30.6274V28.7873H30.681V28.948H30.7345V29.0551H30.7881V29.1621H30.8416V29.3228H30.8952V29.4299H30.9487V29.537H31.0022V29.644H31.0558V29.8047H31.1093V29.9118H31.1629V30.0189H31.2164V30.1795H31.27V30.2866H31.3235V30.3937H31.3771V30.5543H31.4306V30.6614H31.4841V30.7685H31.5377V30.9291H31.5912V31.0362H31.6448V31.1433H31.6983V31.2504H31.7519V31.411H31.8054V31.5181H31.859V31.6252H31.9125V31.7858H31.966V31.8929H32.0196V32H-6.10352e-05ZM5.46148 28.8409V28.8944H26.2368V28.7873H26.1832V28.6802H26.1297V28.5196H26.0761V28.4125H26.0226V28.2519H25.9691V28.1448H25.9155V27.9842H25.862V27.8771H25.8084V27.7164H25.7549V27.6093H25.7013V27.4487H25.6478V27.3416H25.5942V27.181H25.5407V27.0739H25.4872V26.9133H25.4336V26.8062H25.3801V26.6455H25.3265V26.5385H25.273V26.3778H25.2194V26.2707H25.1659V26.1101H25.1123V26.003H25.0588V25.8424H25.0053V25.7353H24.9517V25.5747H24.8982V25.4676H24.8446V25.3069H24.7911V25.1998H24.7375V25.0392H24.684V24.9321H24.6304V24.7715H24.5769V24.6644H24.5234V24.5573H24.4698V24.3967H24.4163V24.2896H24.3627V24.129H24.3092V24.0219H24.2556V23.8612H24.2021V23.7541H24.1485V23.5935H24.095V23.4864H24.0415V23.3258H23.9879V23.2187H23.9344V23.0581H23.8808V22.951H23.8273V22.7903H23.7737V22.6833H23.7202V22.5226H23.6666V22.4155H23.6131V22.2549H23.5595V22.1478H23.506V21.9872H23.4525V21.8801H23.3989V21.7194H23.3454V21.6124H23.2918V21.4517H23.2383V21.3446H23.1847V21.184H23.1312V21.0769H23.0776V20.9163H23.0241V20.8092H22.9706V20.6486H22.917V20.5415H22.8635V20.3808H22.8099V20.2737H22.7564V20.1131H22.7028V20.006H22.6493V19.8454H22.5957V19.7383H22.5422V19.5777H22.4887V19.4706H22.4351V19.3099H22.3816V19.2029H22.328V19.0422H22.2745V18.9351H22.2209V18.7745H22.1674V18.6674H22.1138V18.5068H22.0603V18.3997H22.0068V18.2391H21.9532V18.132H21.8997V17.9713H21.8461V17.8642H21.7926V17.7036H21.739V17.5965H21.6855V17.4359H21.6319V17.3288H21.5784V17.1682H21.5249V17.0611H21.4713V16.9004H21.4178V16.7934H21.3642V16.6327H21.3107V16.5256H21.2571V16.365H21.2036V16.2579H21.15V16.0973H21.0965V15.9902H21.043V15.8295H20.9894V15.7225H20.9359V15.5618H20.8823V15.4547H20.8288V15.2941H20.7752V15.187H20.7217V15.0264H20.6681V14.9193H20.6146V14.7587H20.5611V14.6516H20.5075V14.4909H20.454V14.3838H20.4004V14.2232H20.3469V14.1161H20.2933V13.9555H20.2398V13.8484H20.1862V13.6878H20.1327V13.5807H20.0792V13.42H20.0256V13.313H19.9721V13.1523H19.9185V13.0452H19.865V12.8846H19.8114V12.7775H19.7579V12.6169H19.7043V12.5098H19.6508V12.3492H19.5973V12.2421H19.5437V12.0814H19.4902V11.9208H19.4366V11.8137H19.3831V11.6531H19.3295V11.546H19.276V11.3854H19.2224V11.2783H19.1689V11.1176H19.1154V11.0105H19.0618V10.8499H19.0083V10.7428H18.9547V10.5822H18.9012V10.4751H18.8476V10.3145H18.7941V10.2074H18.7405V10.0467H18.687V9.93965H18.6334V9.77902H18.5799V9.67193H18.5264V9.51129H18.4728V9.4042H18.4193V9.24357H18.3657V9.13648H18.3122V8.97585H18.2586V8.86876H18.2051V8.70813H18.1515V8.60104H18.098V8.4404H18.0445V8.27977H17.9909V8.17268H17.9374V8.01205H17.8838V7.90496H17.8303V7.74432H17.7767V7.63723H17.7232V7.4766H17.6696V7.36951H17.6161V7.20888H17.5626V7.10179H17.509V6.94115H17.4555V6.83407H17.4019V6.67343H17.3484V6.5128H17.2948V6.40571H17.2413V6.24508H17.1877V6.13799H17.1342V5.97735H17.0807V5.87026H17.0271V5.70963H16.9736V5.60254H16.92V5.44191H16.8665V5.28127H16.8129V5.17418H16.7594V5.01355H16.7058V4.90646H16.6523V4.74583H16.5988V4.63874H16.5452V4.47811H16.4917V4.31747H16.4381V4.21038H16.3846V4.04975H16.331V3.94266H16.2775V3.78203H16.2239V3.62139H16.1704V3.51431H16.1169V3.35367H15.6885V3.46076H15.635V3.62139H15.5814V3.78203H15.5279V3.88912H15.4743V4.04975H15.4208V4.21038H15.3672V4.31747H15.3137V4.47811H15.2601V4.5852H15.2066V4.74583H15.1531V4.85292H15.0995V5.01355H15.046V5.17418H14.9924V5.28127H14.9389V5.44191H14.8853V5.549H14.8318V5.70963H14.7782V5.81672H14.7247V5.97735H14.6712V6.13799H14.6176V6.24508H14.5641V6.40571H14.5105V6.5128H14.457V6.67343H14.4034V6.78052H14.3499V6.94115H14.2963V7.04824H14.2428V7.20888H14.1892V7.31597H14.1357V7.4766H14.0822V7.58369H14.0286V7.74432H13.9751V7.85141H13.9215V8.01205H13.868V8.11913H13.8144V8.27977H13.7609V8.38686H13.7073V8.54749H13.6538V8.65458H13.6003V8.81521H13.5467V8.9223H13.4932V9.08294H13.4396V9.19003H13.3861V9.35066H13.3325V9.51129H13.279V9.61838H13.2254V9.77902H13.1719V9.8861H13.1184V10.0467H13.0648V10.1538H13.0113V10.3145H12.9577V10.4216H12.9042V10.5822H12.8506V10.6893H12.7971V10.8499H12.7435V10.957H12.69V11.1176H12.6365V11.2247H12.5829V11.3318H12.5294V11.4924H12.4758V11.5995H12.4223V11.7602H12.3687V11.8673H12.3152V12.0279H12.2616V12.135H12.2081V12.2956H12.1546V12.4027H12.101V12.5633H12.0475V12.6704H11.9939V12.8311H11.9404V12.9381H11.8868V13.0988H11.8333V13.2059H11.7797V13.3665H11.7262V13.4736H11.6727V13.6342H11.6191V13.7413H11.5656V13.9019H11.512V14.009H11.4585V14.1697H11.4049V14.2768H11.3514V14.4374H11.2978V14.5445H11.2443V14.7051H11.1908V14.8122H11.1372V14.9728H11.0837V15.0799H11.0301V15.2406H10.9766V15.3476H10.923V15.5083H10.8695V15.6154H10.8159V15.776H10.7624V15.8831H10.7089V16.0437H10.6553V16.1508H10.6018V16.2579H10.5482V16.4185H10.4947V16.5256H10.4411V16.6863H10.3876V16.7934H10.334V16.954H10.2805V17.0611H10.227V17.2217H10.1734V17.3288H10.1199V17.4894H10.0663V17.5965H10.0128V17.7572H9.95923V17.8642H9.90568V18.0249H9.85214V18.132H9.7986V18.2926H9.74505V18.3997H9.69151V18.5603H9.63796V18.6674H9.58442V18.828H9.53087V18.9351H9.47733V19.0422H9.42378V19.2029H9.37024V19.3099H9.31669V19.4706H9.26315V19.5777H9.20961V19.7383H9.15606V19.8454H9.10252V20.006H9.04897V20.1131H8.99543V20.2737H8.94188V20.3808H8.88834V20.5415H8.83479V20.6486H8.78125V20.8092H8.7277V20.9163H8.67416V21.0769H8.62062V21.184H8.56707V21.2911H8.51353V21.4517H8.45998V21.5588H8.40644V21.7194H8.35289V21.8265H8.29935V21.9872H8.2458V22.0943H8.19226V22.2549H8.13871V22.362H8.08517V22.5226H8.03162V22.6297H7.97808V22.7903H7.92454V22.8974H7.87099V23.0581H7.81745V23.1652H7.7639V23.2722H7.71036V23.4329H7.65681V23.54H7.60327V23.7006H7.54972V23.8077H7.49618V23.9683H7.44263V24.0754H7.38909V24.236H7.33555V24.3431H7.282V24.5038H7.22846V24.6109H7.17491V24.7715H7.12137V24.8786H7.06782V24.9857H7.01428V25.1463H6.96073V25.2534H6.90719V25.414H6.85364V25.5211H6.8001V25.6817H6.74655V25.7888H6.69301V25.9495H6.63947V26.0566H6.58592V26.2172H6.53238V26.3243H6.47883V26.4849H6.42529V26.592H6.37174V26.6991H6.3182V26.8597H6.26465V26.9668H6.21111V27.1274H6.15756V27.2345H6.10402V27.3952H6.05048V27.5023H5.99693V27.6629H5.94339V27.77H5.88984V27.9306H5.8363V28.0377H5.78275V28.1983H5.72921V28.3054H5.67566V28.4125H5.62212V28.5731H5.56857V28.6802H5.51503V28.8409" fill="url(#paint0_linear_616_6329)"/>
</g>
<defs>
<linearGradient id="paint0_linear_616_6329" x1="15.9964" y1="32.6922" x2="16.1561" y2="0.692722" gradientUnits="userSpaceOnUse">
<stop stop-color="#F7C143"/>
<stop offset="0.219919" stop-color="#C49D31"/>
<stop offset="0.245412" stop-color="#C49D31"/>
<stop offset="0.449972" stop-color="#EAD34D"/>
<stop offset="0.49337" stop-color="#EAD34D"/>
<stop offset="0.555589" stop-color="#EAD34D"/>
<stop offset="0.756523" stop-color="#C49D31"/>
<stop offset="0.842885" stop-color="#C49D31"/>
<stop offset="0.998587" stop-color="#F7C143"/>
<stop offset="1" stop-color="#F7C143"/>
</linearGradient>
</defs>
</svg>
